<svg width="11150" height="2861" viewBox="0 0 11150 2861" fill="none" xmlns="http://www.w3.org/2000/svg">
    <path fill-rule="evenodd" clip-rule="evenodd" d="M664.159 848.083C739.091 848.083 813.171 856.597 886.399 873.627C959.627 890.657 1014.12 907.687 1049.88 924.716L1085.63 941.739V0H1537.77V1024.34H1542.88C1660.39 906.835 1785.56 848.083 1918.39 848.083C1983.1 848.083 2047.39 856.597 2111.25 873.627C2175.11 890.657 2236.42 917.052 2295.17 952.815C2353.92 988.578 2401.61 1039.24 2438.22 1104.81C2460.64 1144.94 2476.19 1189.07 2484.88 1237.19C2522.25 1165.58 2574.38 1101.01 2641.29 1043.5C2792.85 913.221 2980.18 848.083 3203.27 848.083C3422.95 848.083 3608.15 913.647 3758.87 1044.78C3832.75 1109.06 3888.5 1181.73 3926.17 1262.79V886.399H4373.2V1034.56H4378.31C4490.71 910.24 4633.75 848.083 4807.46 848.083C4996.49 848.083 5152.31 914.924 5274.93 1048.61C5397.54 1182.29 5458.85 1346.2 5458.85 1540.34C5458.85 1734.48 5397.54 1898.82 5274.93 2033.35C5152.31 2167.89 4996.49 2235.16 4807.46 2235.16C4633.75 2235.16 4490.71 2180.66 4378.31 2071.67V2861H3926.17V1825.6C3889.38 1905.27 3835.31 1976.65 3763.97 2039.74C3616.67 2170.02 3429.76 2235.16 3203.27 2235.16C2968.26 2235.16 2777.95 2170.44 2632.35 2041.02C2574.42 1989.52 2528.02 1932.23 2493.14 1869.15V2196.84H2041V1456.04C2041 1387.93 2019.29 1328.32 1975.86 1277.23C1932.44 1226.14 1875.81 1200.6 1805.99 1200.6C1737.87 1200.6 1676.14 1226.99 1620.79 1279.79C1565.45 1332.58 1537.77 1391.33 1537.77 1456.04V2196.84H1085.63V1988.03C1006.71 2152.76 813.449 2235.16 505.784 2235.16C412.12 2235.16 323.139 2220.68 238.842 2191.73C154.545 2162.78 93.6633 2133.83 56.1984 2104.88L0 2058.9L183.921 1749.81C197.545 1761.73 215.426 1775.78 237.565 1791.96C259.703 1808.14 299.723 1830.27 357.625 1858.37C415.526 1886.47 465.764 1900.52 508.337 1900.52C602.002 1900.52 648.833 1869.02 648.833 1806.01C648.833 1777.06 636.913 1754.49 613.071 1738.31C589.23 1722.14 548.784 1703.83 491.734 1683.39C434.685 1662.96 389.981 1644.22 357.625 1627.19C275.881 1584.62 211.169 1536.51 163.486 1482.87C115.802 1429.22 91.9601 1358.12 91.9601 1269.57C91.9601 1136.74 143.476 1033.28 246.506 959.202C349.535 885.122 488.753 848.083 664.159 848.083ZM5480.47 886.399V2196.84H5932.61V1073.66L5831.44 886.399H5480.47ZM4890.48 1762.58C4949.23 1704.68 4978.61 1630.6 4978.61 1540.34C4978.61 1450.08 4950.51 1376.43 4894.31 1319.38C4838.11 1262.33 4764.03 1233.81 4672.07 1233.81C4583.52 1233.81 4510.71 1262.76 4453.67 1320.66C4396.62 1378.56 4368.09 1451.79 4368.09 1540.34C4368.09 1630.6 4397.47 1704.68 4456.22 1762.58C4514.97 1820.48 4586.92 1849.43 4672.07 1849.43C4758.92 1849.43 4831.73 1820.48 4890.48 1762.58ZM2982.31 1320.66C2923.55 1378.56 2894.18 1452.64 2894.18 1542.9C2894.18 1633.15 2922.28 1706.81 2978.48 1763.86C3034.67 1820.91 3108.75 1849.43 3200.71 1849.43C3289.27 1849.43 3362.07 1820.48 3419.12 1762.58C3476.17 1704.68 3504.7 1631.45 3504.7 1542.9C3504.7 1452.64 3475.32 1378.56 3416.57 1320.66C3357.81 1262.76 3285.86 1233.81 3200.71 1233.81C3113.86 1233.81 3041.06 1262.76 2982.31 1320.66ZM1085.63 986.052L955.37 1246.58C853.19 1192.08 756.121 1164.84 664.159 1164.84C613.071 1164.84 576.883 1170.37 555.595 1181.44C534.308 1192.51 523.666 1213.37 523.666 1244.02C523.666 1250.84 524.516 1257.65 526.219 1264.46C527.923 1271.27 531.328 1277.66 536.438 1283.62C541.546 1289.58 546.23 1294.69 550.487 1298.94C554.744 1303.2 561.982 1307.89 572.199 1312.99C582.418 1318.1 590.507 1321.94 596.467 1324.49C602.428 1327.04 612.22 1330.88 625.843 1335.98C639.468 1341.09 649.685 1344.93 656.497 1347.48C663.309 1350.03 674.804 1353.87 690.983 1358.98C707.16 1364.08 719.507 1367.49 728.022 1369.19C780.814 1384.52 826.794 1401.55 865.963 1420.28C905.132 1439.01 946.428 1464.56 989.855 1496.92C1030.26 1527.02 1062.18 1564.5 1085.63 1609.34V986.052Z" fill="#FFD365"/>
    <path d="M5523.9 300.429C5576.69 247.638 5639.7 221.242 5712.93 221.242C5786.16 221.242 5849.17 247.637 5901.96 300.429C5954.75 353.222 5981.15 416.232 5981.15 489.46C5981.15 562.689 5954.75 625.699 5901.96 678.491C5849.17 731.282 5786.16 757.679 5712.93 757.679C5639.7 757.679 5576.69 731.283 5523.9 678.491C5471.11 625.699 5444.71 562.689 5444.71 489.46C5444.71 416.232 5471.11 353.221 5523.9 300.429ZM11147.4 1604.2H10197.1C10197.1 1696.16 10226.9 1764.28 10286.5 1808.56C10346.1 1852.84 10410.9 1874.98 10480.7 1874.98C10553.9 1874.98 10611.8 1865.19 10654.4 1845.6C10697 1826.02 10745.5 1787.27 10800 1729.37L11127 1892.86C10990.7 2121.06 10764.2 2235.16 10447.5 2235.16C10249.9 2235.16 10080.5 2167.46 9939.13 2032.08C9903.37 1997.82 9872.14 1961.79 9845.42 1924C9788.2 2131.42 9587.01 2235.16 9241.77 2235.16C9148.11 2235.16 9059.13 2220.68 8974.83 2191.73C8890.54 2162.78 8829.65 2133.83 8792.19 2104.88L8776.88 2092.35V2196.84H8324.74V1191.4L7785.76 2196.84H7479.22L7177.8 1519.91L6876.37 2196.84H6569.83L5867.36 886.4H6388.47L6707.77 1593.99L7021.97 886.4H7333.62L7647.82 1593.99L7967.12 886.4H8324.74H8488.24H8776.88V1990.19L8919.91 1749.81C8933.53 1761.73 8951.42 1775.78 8973.56 1791.96C8995.69 1808.14 9035.71 1830.27 9093.62 1858.37C9151.52 1886.47 9201.75 1900.52 9244.33 1900.52C9337.99 1900.52 9384.82 1869.02 9384.82 1806.01C9384.82 1777.06 9372.9 1754.49 9349.06 1738.31C9325.22 1722.14 9284.77 1703.83 9227.72 1683.39C9170.67 1662.96 9125.97 1644.22 9093.62 1627.19C9011.87 1584.62 8947.16 1536.51 8899.48 1482.87C8851.79 1429.22 8827.95 1358.12 8827.95 1269.57C8827.95 1136.74 8879.47 1033.28 8982.5 959.202C9085.53 885.123 9224.74 848.083 9400.15 848.083C9475.08 848.083 9549.16 856.597 9622.39 873.627C9695.62 890.658 9750.11 907.687 9785.87 924.716L9839.52 950.262L9691.36 1246.58C9589.18 1192.08 9492.11 1164.84 9400.15 1164.84C9349.06 1164.84 9312.87 1170.37 9291.59 1181.44C9270.3 1192.51 9259.66 1213.37 9259.66 1244.02C9259.66 1250.84 9260.51 1257.65 9262.21 1264.46C9263.91 1271.27 9267.32 1277.66 9272.43 1283.62C9277.54 1289.58 9282.22 1294.69 9286.48 1298.95C9290.73 1303.2 9297.97 1307.89 9308.19 1312.99C9318.41 1318.1 9326.5 1321.94 9332.46 1324.49C9338.42 1327.04 9348.21 1330.88 9361.83 1335.98C9375.46 1341.09 9385.68 1344.93 9392.49 1347.48C9399.3 1350.03 9410.79 1353.87 9426.97 1358.98C9443.15 1364.08 9455.5 1367.49 9464.01 1369.19C9516.8 1384.52 9562.78 1401.55 9601.95 1420.28C9641.12 1439.01 9682.42 1464.56 9725.84 1496.92C9726.7 1497.55 9727.55 1498.19 9728.39 1498.84C9738.54 1326.87 9808.79 1178.07 9939.13 1052.44C10080.5 916.202 10249.9 848.083 10447.5 848.083C10655.2 848.083 10824.3 908.112 10954.5 1028.17C11084.8 1148.23 11149.9 1319.81 11149.9 1542.9C11149.9 1573.55 11149.1 1593.99 11147.4 1604.2ZM10209.9 1353.87H10708C10697.8 1285.75 10671 1233.38 10627.6 1196.77C10584.1 1160.15 10528.4 1141.85 10460.2 1141.85C10385.3 1141.85 10325.7 1161.43 10281.4 1200.6C10237.1 1239.77 10213.3 1290.86 10209.9 1353.87ZM8368.16 300.429C8420.95 247.638 8483.96 221.242 8557.19 221.242C8630.42 221.242 8693.43 247.637 8746.22 300.429C8799.01 353.222 8825.41 416.232 8825.41 489.46C8825.41 562.689 8799.01 625.699 8746.22 678.491C8693.43 731.282 8630.42 757.679 8557.19 757.679C8483.96 757.679 8420.95 731.283 8368.16 678.491C8315.37 625.699 8288.97 562.689 8288.97 489.46C8288.97 416.232 8315.37 353.221 8368.16 300.429Z" fill="#A12050"/>
</svg>
